# xmcd
#
# Track frame offsets:
#	150
#	13412
#	29126
#	46621
#	60768
#	105223
#	118238
#	132332
#	145694
#	159621
#	168253
#	204595
#	219902
#	233704
#	249656
#	263883
#	279195
#	295832
#	311824
#	330169
#
# Disc length: 4611
#
# Revision: 1
# Processed by: cddbd v1.5.1PL0 Copyright (c) Steve Scherf et al.
# Submitted via: CDex 1.50beta9
# Normalized: r0:DSETVAR1,TDELIM( - )
#
DISCID=17120114
DTITLE=Various Artist - The Birth of the BLUES [CD1]
DYEAR=2002
DGENRE=Blues
TTITLE0=Muddy Waters - Hoochie Coochie Man
TTITLE1=Bo Diddley - Road Runner
TTITLE2=Jimmy Reed - Cry Before I Go
TTITLE3=Lightnin' Hopkins - War Is Starting Again
TTITLE4=Luther Allison - The Thrill Is Gone
TTITLE5=John Lee Hooker - My Baby's Got Something
TTITLE6=King Biscuit Boy With The Ronnie Hawkins Band - Neighbour Neighbour
TTITLE7=Sonny Boy Williamson - Bye Bye Bird
TTITLE8=Buddy Guy - This Is The End
TTITLE9=Johnny "Guitar" Watson - Looking Back
TTITLE10=Albert Collins - How Blue Can You Get
TTITLE11=Louisiana Red - You're Gonna Need Me, Baby
TTITLE12=Junior Wells - Junior's Wail
TTITLE13=Buddy Reed - Blues For Mud
TTITLE14=Muddy Waters - Got My Mojo Working
TTITLE15=Jimmy Reed - Down At The Corner Grocery Store
TTITLE16=U. P. Wilson - Johnny B. Goode
TTITLE17=John Lee Hooker - Black Man Blues
TTITLE18=Koko Taylor - Wand Dang Doodle
TTITLE19=Sunnyland Slim - I Had It So Hard
EXTD=YEAR: 2002
EXTT0=
EXTT1=
EXTT2=
EXTT3=
EXTT4=
EXTT5=
EXTT6=
EXTT7=
EXTT8=
EXTT9=
EXTT10=
EXTT11=
EXTT12=
EXTT13=
EXTT14=
EXTT15=
EXTT16=
EXTT17=
EXTT18=
EXTT19=
PLAYORDER=
